

Source: Bluray

Video:  720x304 @bitrate 1700 2pass
Audio: English DTS to AC3 5.1 @448
Subs: Yes, English in srt /subs
Sample: Yes, included[/b]

 
http://www.imdb.com/title/tt1232829/


General
Complete name                  : 21.Jump.Street.2012.BDRip.XVID.AC3.HQ.Hive-CM8.avi
Format                         : AVI
Format/Info                    : Audio Video Interleave
File size                      : 1.65 GiB
Duration                       : 1h 49mn
Overall bit rate               : 2 157 Kbps
Writing application            : Nandub v1.0rc2
Writing library                : Nandub build 1853/release

Video
ID                             : 0
Format                         : MPEG-4 Visual
Format profile                 : Advanced Simple@L5
Format settings, BVOP          : 1
Format settings, QPel          : Yes
Format settings, GMC           : No warppoints
Format settings, Matrix        : Default (H.263)
Muxing mode                    : Packed bitstream
Codec ID                       : XVID
Codec ID/Hint                  : XviD
Duration                       : 1h 49mn
Bit rate                       : 1 700 Kbps
Width                          : 720 pixels
Height                         : 304 pixels
Display aspect ratio           : 2.40:1
Frame rate                     : 23.976 fps
Color space                    : YUV
Chroma subsampling             : 4:2:0
Bit depth                      : 8 bits
Scan type                      : Progressive
Compression mode               : Lossy
Bits/(Pixel*Frame)             : 0.324
Stream size                    : 1.30 GiB (79%)
Writing library                : XviD 1.2.1 (UTC 2008-12-04)

Audio
ID                             : 1
Format                         : AC-3
Format/Info                    : Audio Coding 3
Mode extension                 : CM (complete main)
Format settings, Endianness    : Big
Codec ID                       : 2000
Duration                       : 1h 49mn
Bit rate mode                  : Constant
Bit rate                       : 448 Kbps
Channel(s)                     : 6 channels
Channel positions              : Front: L C R, Side: L R, LFE
Sampling rate                  : 48.0 KHz
Bit depth                      : 16 bits
Compression mode               : Lossy
Stream size                    : 351 MiB (21%)
Alignment                      : Split accross interleaves
Interleave, duration           : 42 ms (1.00 video frame)
Interleave, preload duration   : 500 ms


Plot:
A pair of underachieving cops are sent back to a local high school
to blend in and bring down a synthetic drug ring.


Cast:
Jonah Hill       ...    Schmidt
Channing Tatum   ...    Jenko
Ice Cube         ...    Captain Dickson
Brie Larson      ...    Molly Tracey

 
http://img850.imageshack.us/img850/8530/jjuujujujujujjuu.png 
http://img88.imageshack.us/img88/4081/16405875.png 
http://img404.imageshack.us/img404/9966/jjuujujujujjuu.png